<svg xmlns="http://www.w3.org/2000/svg" xmlns:xlink="http://www.w3.org/1999/xlink" id="Layer_2" data-name="Layer 2" viewBox="0 0 121.38 73.91"><defs><style>      .cls-1 {        fill: url(#Degradado_sin_nombre_3);      }    </style><linearGradient id="Degradado_sin_nombre_3" data-name="Degradado sin nombre 3" x1="75.96" y1="66.44" x2="98.45" y2="4.66" gradientUnits="userSpaceOnUse"><stop offset="0" stop-color="#f7ac00"></stop><stop offset=".88" stop-color="#ffe400"></stop></linearGradient></defs><g id="Capa_1" data-name="Capa 1" fill="#ffffff"><g><path d="M0,19.3c0-1.38,1.09-2.48,2.48-2.48h6.72c5.37,0,8.61,3.18,8.61,7.78v.06c0,5.21-4.05,7.91-9.1,7.91h-3.76v4.47c0,1.38-1.09,2.48-2.48,2.48s-2.48-1.09-2.48-2.48v-17.74ZM8.87,28.17c2.48,0,3.92-1.48,3.92-3.41v-.06c0-2.22-1.54-3.41-4.02-3.41h-3.83v6.88h3.92Z"></path><path d="M27.68,39.71c-5.18,0-9-3.63-9-8.9v-.06c0-4.92,3.5-8.97,8.52-8.97,5.75,0,8.29,4.73,8.29,8.29,0,1.41-1,2.35-2.28,2.35h-9.68c.48,2.22,2.03,3.38,4.21,3.38,1.35,0,2.48-.42,3.47-1.16.35-.26.68-.39,1.19-.39,1.09,0,1.9.84,1.9,1.93,0,.64-.29,1.13-.64,1.45-1.51,1.29-3.47,2.09-5.98,2.09ZM30.83,29.36c-.29-2.19-1.58-3.66-3.63-3.66s-3.34,1.45-3.73,3.66h7.36Z"></path><path d="M39.22,24.35c0-1.35,1.09-2.44,2.44-2.44s2.44,1.09,2.44,2.44v.19c1.13-1.45,2.57-2.76,5.05-2.76,3.7,0,5.85,2.44,5.85,6.4v8.9c0,1.35-1.09,2.44-2.44,2.44s-2.44-1.09-2.44-2.44v-7.36c0-2.31-1.09-3.5-2.96-3.5s-3.05,1.19-3.05,3.5v7.36c0,1.35-1.09,2.44-2.44,2.44s-2.44-1.09-2.44-2.44v-12.73Z"></path><path d="M59.44,37.69c-.51-.32-.93-.9-.93-1.67,0-1.09.84-1.93,1.93-1.93.35,0,.71.1.96.26,1.64,1.03,3.28,1.54,4.66,1.54s2.06-.51,2.06-1.29v-.06c0-1.06-1.67-1.41-3.57-1.99-2.41-.71-5.14-1.83-5.14-5.18v-.06c0-3.5,2.83-5.46,6.3-5.46,1.8,0,3.66.48,5.34,1.32.71.35,1.16,1,1.16,1.83,0,1.09-.87,1.93-1.96,1.93-.35,0-.58-.06-.9-.23-1.38-.68-2.7-1.09-3.73-1.09-1.19,0-1.8.51-1.8,1.19v.06c0,.96,1.64,1.41,3.5,2.06,2.41.8,5.21,1.96,5.21,5.11v.06c0,3.83-2.86,5.56-6.59,5.56-2.12,0-4.4-.61-6.49-1.96Z"></path><path class="cls-1" d="M84.72,36.27c-1.58,0-2.67-.77-2.67-2.09v-.06c0-1.54,1.29-2.38,3.38-2.38,1.19,0,2.28.26,3.12.64v.87c0,1.77-1.54,3.02-3.83,3.02ZM121.26,2.26l-28.38,70.62c-.57,1.42-2.59,1.36-3.08-.09l-12.16-36.08s0,0,0,0c.98,1.91,3.18,2.93,5.59,2.93s4.02-.87,5.21-2.19v.03c0,1.03.93,2.03,2.35,2.03,1.32,0,2.38-1.03,2.38-2.35v-7.84c0-2.31-.58-4.21-1.86-5.5-1.22-1.22-3.15-1.93-5.82-1.93-2.28,0-3.95.32-5.5.9-.77.29-1.32,1.03-1.32,1.9,0,1.13.9,1.99,2.03,1.99.22,0,.42-.03.71-.13.93-.29,2.03-.48,3.38-.48,2.44,0,3.7,1.13,3.7,3.15v.29c-1.22-.42-2.48-.71-4.21-.71-4.08,0-7.15,1.76-7.15,5.52v.06c0,.35.03.68.09.99,0,0,0,0,0,.01l-5.53-16.4c-.28-.85.16-1.76,1-2.07L119.18.1c1.33-.48,2.61.84,2.08,2.16ZM108.61,24.28c0-1.38-.87-2.38-2.38-2.38s-2.6,1.54-3.31,3.21v-.77c0-1.35-1.09-2.44-2.44-2.44s-2.44,1.09-2.44,2.44v12.73c0,1.35,1.09,2.44,2.44,2.44s2.44-1.09,2.44-2.44v-4.56c0-3.47,1.38-5.37,3.86-5.95,1-.23,1.83-1,1.83-2.28Z"></path><g><path d="M0,44.01h4.05v.86H.95v1.5h2.75v.86H.95v2.22H0v-5.45Z"></path><path d="M10.47,49.55c-.35,0-.67-.05-.96-.15-.29-.1-.53-.25-.73-.46-.2-.2-.36-.45-.47-.75-.11-.3-.16-.65-.16-1.04v-3.14h.95v3.1c0,.51.12.9.37,1.16.25.26.59.4,1.02.4s.77-.13,1.01-.38c.25-.25.37-.63.37-1.14v-3.14h.95v3.09c0,.41-.06.76-.17,1.07-.11.31-.27.56-.47.77-.2.21-.45.36-.74.46s-.61.15-.97.15Z"></path><path d="M17.25,44.01h.89l2.92,3.77v-3.77h.95v5.45h-.8l-3-3.88v3.88h-.95v-5.45Z"></path><path d="M26.52,44.01h2.03c.43,0,.82.07,1.17.21.36.14.66.33.92.57.26.24.46.53.6.86.14.33.21.69.21,1.07v.02c0,.38-.07.74-.21,1.08-.14.33-.34.62-.6.86-.26.24-.56.44-.92.58-.36.14-.75.21-1.17.21h-2.03v-5.45ZM28.54,48.6c.29,0,.55-.05.78-.14.23-.09.43-.22.6-.38.16-.16.29-.36.38-.59.09-.23.14-.47.14-.74v-.02c0-.27-.05-.51-.14-.74-.09-.23-.22-.43-.38-.59-.16-.16-.36-.29-.6-.39-.23-.09-.49-.14-.78-.14h-1.08v3.72h1.08Z"></path><path d="M37.66,43.97h.89l2.4,5.49h-1.01l-.55-1.32h-2.58l-.56,1.32h-.98l2.4-5.49ZM39.03,47.3l-.94-2.18-.94,2.18h1.88Z"></path><path d="M47.54,49.56c-.4,0-.77-.07-1.11-.22-.34-.15-.63-.34-.88-.6-.25-.25-.44-.55-.58-.89-.14-.34-.21-.71-.21-1.1v-.02c0-.39.07-.75.21-1.09.14-.34.33-.64.58-.9.25-.26.55-.46.89-.61.34-.15.72-.22,1.14-.22.25,0,.48.02.68.06.21.04.39.1.56.18.17.08.33.16.48.27.15.1.28.22.41.34l-.62.71c-.22-.2-.45-.37-.69-.49-.24-.12-.52-.19-.83-.19-.26,0-.5.05-.72.15-.22.1-.41.24-.57.41-.16.17-.29.38-.37.61-.09.23-.13.48-.13.75v.02c0,.26.04.52.13.75.09.24.21.44.37.62.16.18.35.32.57.42.22.1.46.15.72.15.33,0,.62-.06.86-.19.24-.13.48-.3.71-.52l.62.62c-.14.15-.29.28-.44.4-.15.12-.32.22-.49.3-.18.09-.37.15-.58.19-.21.04-.44.07-.7.07Z"></path><path d="M53.92,44.01h.95v5.45h-.95v-5.45Z"></path><path d="M62.06,49.56c-.42,0-.81-.07-1.15-.22-.35-.15-.65-.35-.9-.6-.25-.25-.44-.55-.58-.89-.14-.34-.21-.7-.21-1.09v-.02c0-.38.07-.75.21-1.09.14-.34.34-.64.59-.9.25-.26.56-.46.9-.61.35-.15.73-.23,1.15-.23s.81.07,1.15.22c.35.15.65.35.9.6.25.25.44.55.58.89.14.34.21.7.21,1.09v.02c0,.38-.07.75-.21,1.09-.14.34-.34.64-.59.9-.25.26-.56.46-.9.61-.35.15-.73.23-1.15.23ZM62.07,48.68c.27,0,.52-.05.74-.15s.42-.24.58-.41c.16-.17.29-.38.38-.61.09-.23.14-.48.14-.75v-.02c0-.26-.05-.52-.14-.75-.09-.24-.22-.44-.38-.62-.16-.17-.36-.31-.59-.42-.23-.1-.48-.16-.74-.16s-.52.05-.74.15-.42.24-.58.41c-.16.17-.29.38-.38.61s-.14.48-.14.75v.02c0,.26.05.52.14.75.09.24.22.44.38.62.16.17.36.31.59.42.23.1.48.16.74.16ZM62.55,42.28l.86.38-.95.9h-.73l.83-1.28Z"></path><path d="M69.19,44.01h.89l2.92,3.77v-3.77h.95v5.45h-.8l-3-3.88v3.88h-.95v-5.45Z"></path></g></g></g></svg>